<svg xmlns="http://www.w3.org/2000/svg" viewBox="0 0 193.7502 125.4086"><defs><style>.cls-1{fill:#93ad3c;}.cls-2{fill:#11159a;}</style></defs><g id="Layer_2" data-name="Layer 2"><g id="Layer_1-2" data-name="Layer 1"><path class="cls-1" d="M173.13,28.696c-6.5459,0-20.163,3.273-20.897,21.889-.3259,8.282-2.662,15.368-6.543,20.845l-.003.006c-5.947,25.626-21.224,44.279-43.731,53.633l12.057.169c36.073.476,62.866-16.788,74.653-46.792S190.2817,28.696,173.13,28.696Z"/><path class="cls-2" d="M144.1817,47.409a60.8065,60.8065,0,0,0-1.322-12.048c-.023.002-.045.006-.068.008-3.46-18.081-19.68-27.903-19.68-27.903S113.0407,0,94.0207,0c-13.848,0-46.946,8.647-44.84,52.173.016.589.039,1.183.079,1.788.195,2.982-.057,22.965,19.704,26.415,15.914,2.779,23.11-7.347,23.504-19.51a85.8872,85.8872,0,0,0,.003-8.596c0-3.773.183-10.357,5.357-10.909,5.52-.588,5.513,4.643,5.529,10.528a40.0449,40.0449,0,0,1-4.208,17.606c-2.736,6.024-8.522,13.264-20.684,14.941a33.4376,33.4376,0,0,1-4.566.317A31.0279,31.0279,0,0,1,52.81,76.505c-6.693-5.798-10.85-14.827-11.294-26.075-.734-18.616-14.351-21.889-20.897-21.889C8.53,28.541-.09,38.351.0007,54.648c-.009,6.895,1.549,14.965,5.082,23.959,11.787,30.004,38.58,47.268,74.653,46.792a61.7265,61.7265,0,0,0,15.017-2.027q1.0965-.3585,2.171-.747c20.192-7.271,34.721-22.071,42.042-42.703q.3195-1.0635.602-2.137c.056-.215.119-.429.173-.645a97.604,97.604,0,0,0,4.291-23.18c.113-1.721.162-3.382.165-4.997q.0015-.369.001-.735Q144.1887,47.817,144.1817,47.409Z"/></g></g></svg>