<svg xmlns="http://www.w3.org/2000/svg" viewBox="0 0 49 58"><g id="Layer_2" data-name="Layer 2"><g id="Layer_1-2" data-name="Layer 1"><path d="M36.86,14H12.14A12.1461,12.1461,0,0,0,0,26.14V45.86A12.1461,12.1461,0,0,0,12.14,58H36.86A12.1461,12.1461,0,0,0,49,45.86V26.14A12.1461,12.1461,0,0,0,36.86,14ZM27,37.59V44H23V37.59a5,5,0,1,1,4,0Z"/><path d="M30.92,0H18.08A12.5771,12.5771,0,0,0,5.5,12.58V17h7.63a4.9329,4.9329,0,0,1-.03-.55v-2.9A7.55,7.55,0,0,1,20.65,6h7.7a7.55,7.55,0,0,1,7.55,7.55v2.9a4.9329,4.9329,0,0,1-.03.55H43.5V12.58A12.5771,12.5771,0,0,0,30.92,0Z"/></g></g></svg>