<svg xmlns="http://www.w3.org/2000/svg" viewBox="0 0 72.5 58"><g id="Layer_2" data-name="Layer 2"><g id="Layer_1-2" data-name="Layer 1"><path d="M60.36,14H35.64A12.1461,12.1461,0,0,0,23.5,26.14V45.86A12.1461,12.1461,0,0,0,35.64,58H60.36A12.1461,12.1461,0,0,0,72.5,45.86V26.14A12.1461,12.1461,0,0,0,60.36,14ZM50.5,37.59V44h-4V37.59a5,5,0,1,1,4,0Z"/><path d="M25.42,0H12.58A12.5771,12.5771,0,0,0,0,12.58V17H7.63a4.9329,4.9329,0,0,1-.03-.55v-2.9A7.55,7.55,0,0,1,15.15,6h7.7a7.55,7.55,0,0,1,7.55,7.55v2.9a4.9329,4.9329,0,0,1-.03.55H38V12.58A12.5771,12.5771,0,0,0,25.42,0Z"/></g></g></svg>